# xmcd
#
# Track frame offsets: 
#        150
#        10187
#        24624
#        37624
#        57570
#        70259
#        83565
#        95152
#        105828
#        117683
#        126636
#        137471
#        155096
#        167864
#        179449
#        191172
#        204122
#        216725
#        226682
#        242208
#        262044
#        275280
#        286178
#        309261
#        320313
#        334923
#
# Disc length: 4780 seconds
#
# Revision: 1
# Processed by: cddbd v1.5.2PL0 Copyright (c) Steve Scherf et al.
# Submitted via: ExactAudioCopy v1.1
#
DISCID=7b12aa1a
DTITLE=John Lee Hooker - Akella Presents - Greatest Bluesmen - vol. 18
DTITLE=CD1
DYEAR=2017
DGENRE=Blues
TTITLE0=I Wanna Walk
TTITLE1=Love Me All the Time
TTITLE2=Canal Street Blues
TTITLE3=Nightmare
TTITLE4=I Can't Believe
TTITLE5=Whiskey and Wimmen
TTITLE6=Solid Sender
TTITLE7=Goin' to California
TTITLE8=Boom Boom
TTITLE9=You Know I Love You
TTITLE10=Old Time Shimmy
TTITLE11=Blues Before Sunrise
TTITLE12=I Got A Letter
TTITLE13=A New Leaf
TTITLE14=What Do You Say
TTITLE15=Drug Store Woman
TTITLE16=Take A Look At Yourself
TTITLE17=I'm Leaving
TTITLE18=One Way Ticket
TTITLE19=Half A Stranger
TTITLE20=Don't Look Back
TTITLE21=I Want To Shout
TTITLE22=Decoration Day
TTITLE23=Bottle Up And Go
TTITLE24=Sugar Mama
TTITLE25=It Serve You Right To Suffer
EXTD=
EXTT0=
EXTT1=
EXTT2=
EXTT3=
EXTT4=
EXTT5=
EXTT6=
EXTT7=
EXTT8=
EXTT9=
EXTT10=
EXTT11=
EXTT12=
EXTT13=
EXTT14=
EXTT15=
EXTT16=
EXTT17=
EXTT18=
EXTT19=
EXTT20=
EXTT21=
EXTT22=
EXTT23=
EXTT24=
EXTT25=
PLAYORDER=
